<?xml version="1.0" standalone="no"?><!DOCTYPE svg PUBLIC "-//W3C//DTD SVG 1.1//EN" "http://www.w3.org/Graphics/SVG/1.1/DTD/svg11.dtd"><svg t="1564891180783" class="icon" viewBox="0 0 1024 1024" version="1.1" xmlns="http://www.w3.org/2000/svg" p-id="23825" xmlns:xlink="http://www.w3.org/1999/xlink" width="200" height="200"><defs><style type="text/css"></style></defs><path d="M412.9 655c132.5 0 239.8-107.4 239.8-239.8S545.3 175.3 412.9 175.3 173 282.7 173 415.1 280.4 655 412.9 655zM645 604.9l72.8 72.8 42.4-42.4c11.7-11.7 30.7-11.7 42.4 0s11.7 30.7 0 42.4L760.2 720l63.6 63.6c11.7 11.7 11.7 30.7 0 42.4s-30.7 11.7-42.4 0l-63.6-63.6-42.4 42.4c-11.7 11.7-30.7 11.7-42.4 0s-11.7-30.7 0-42.4l42.4-42.4-72.8-72.8c-51.7 42.3-117.8 67.7-189.7 67.7-165.6 0-299.8-134.2-299.8-299.8s134.2-299.8 299.8-299.8 299.8 134.2 299.8 299.8c-0.1 72-25.4 138.1-67.7 189.8z" p-id="23826"></path></svg>