<?xml version="1.0" standalone="no"?><!DOCTYPE svg PUBLIC "-//W3C//DTD SVG 1.1//EN" "http://www.w3.org/Graphics/SVG/1.1/DTD/svg11.dtd"><svg t="1520840152120" class="icon" style="" viewBox="0 0 1171 1024" version="1.1" xmlns="http://www.w3.org/2000/svg" p-id="19130" xmlns:xlink="http://www.w3.org/1999/xlink" width="54.890625" height="48"><defs><style type="text/css"></style></defs><path d="M331.556571 263.460571q0-23.405714-14.262857-37.741714t-37.741714-14.262857q-24.576 0-43.446857 14.555429t-18.870857 37.449143q0 22.308571 18.870857 36.864t43.446857 14.555429q23.405714 0 37.741714-13.970286t14.262857-37.449143zM756.150857 553.179429q0-16.018286-14.555429-28.598857t-37.449143-12.580571q-15.433143 0-28.306286 12.873143t-12.873143 28.306286q0 16.018286 12.873143 28.891429t28.306286 12.873143q22.820571 0 37.449143-12.580571t14.555429-29.110857zM621.275429 263.460571q0-23.405714-13.970286-37.741714t-37.449143-14.262857q-24.576 0-43.446857 14.555429t-18.870857 37.449143q0 22.308571 18.870857 36.864t43.446857 14.555429q23.405714 0 37.449143-13.970286t13.970286-37.449143zM984.137143 553.179429q0-16.018286-14.848-28.598857t-37.156571-12.580571q-15.433143 0-28.306286 12.873143t-12.873143 28.306286q0 16.018286 12.873143 28.891429t28.306286 12.873143q22.308571 0 37.156571-12.580571t14.848-29.110857zM832.146286 326.290286q-17.700571-2.267429-40.009143-2.267429-96.548571 0-177.737143 44.032t-127.707429 119.149714-46.592 164.278857q0 44.544 13.165714 86.820571-19.968 1.682286-38.838857 1.682286-14.848 0-28.598857-0.877714t-31.451429-3.730286-25.453714-4.022857-31.158857-5.997714-28.598857-5.997714l-144.603429 72.557714 41.179429-124.562286q-165.741714-116.004571-165.741714-279.990857 0-96.548571 55.734857-177.737143t150.820571-127.707429 207.725714-46.592q100.571429 0 190.025143 37.741714t149.723429 104.301714 77.970286 148.845714zM1170.432 646.875429q0 66.852571-39.131429 127.707429t-105.984 110.592l31.451429 103.424-113.737143-62.317714q-85.723429 21.138286-124.562286 21.138286-96.548571 0-177.737143-40.301714t-127.707429-109.421714-46.592-150.820571 46.592-150.820571 127.707429-109.421714 177.737143-40.301714q92.013714 0 173.129143 40.301714t129.974857 109.714286 48.859429 150.601143z" p-id="19131"></path></svg>