<?xml version="1.0" encoding="UTF-8"?>
<svg width="1217px" height="219px" viewBox="0 0 1217 219" version="1.1" xmlns="http://www.w3.org/2000/svg" xmlns:xlink="http://www.w3.org/1999/xlink">
    <!-- Generator: Sketch 43.1 (39012) - http://www.bohemiancoding.com/sketch -->
    <title>Group</title>
    <desc>Created with Sketch.</desc>
    <defs>
        <filter x="-0.7%" y="-0.7%" width="103.0%" height="102.8%" filterUnits="objectBoundingBox" id="filter-1">
            <feOffset dx="3" dy="3" in="SourceAlpha" result="shadowOffsetOuter1"></feOffset>
            <feColorMatrix values="0 0 0 0 0   0 0 0 0 0   0 0 0 0 0  0 0 0 0.5 0" type="matrix" in="shadowOffsetOuter1" result="shadowMatrixOuter1"></feColorMatrix>
            <feMerge>
                <feMergeNode in="shadowMatrixOuter1"></feMergeNode>
                <feMergeNode in="SourceGraphic"></feMergeNode>
            </feMerge>
        </filter>
    </defs>
    <g id="Page-1" stroke="none" stroke-width="1" fill="none" fill-rule="evenodd">
        <g id="Group" transform="translate(-10.000000, -74.000000)">
            <text id="Lollipop" font-family="Phosphate-Inline, Phosphate" font-size="288" font-weight="normal" letter-spacing="1.61538398" fill="#ACC8FF">
                <tspan x="0" y="271">Lollipop</tspan>
            </text>
            <g id="棒棒糖" filter="url(#filter-1)" transform="translate(133.000000, 75.000000)" fill-rule="nonzero">
                <path d="M167.759521,170.944696 C162.65554,176.076637 157.028015,180.655648 150.969783,184.606191 C147.983834,186.556247 144.899781,188.350625 141.729882,189.982191 L153.326335,207.873252 C158.064944,215.183722 167.941391,217.168278 175.385877,212.307617 C182.830362,207.446957 185.023896,197.579826 180.286396,190.269357 L167.759521,170.944696 L167.759521,170.944696 Z" id="Shape" fill="#8D3F07"></path>
                <path d="M100.457513,201.823861 C155.925995,201.823861 200.892084,156.69242 200.892084,101.019965 C200.892084,65.0062016 181.749363,31.7281115 150.674799,13.7212295 C119.600234,-4.28565243 81.3147915,-4.28565243 50.2402268,13.7212295 C19.1656622,31.7281115 0.0229411895,65.0062016 0.0229417241,101.019965 C0.0229417241,156.69242 44.9890308,201.823861 100.457513,201.823861 Z" id="Shape" fill="#F9949E"></path>
                <path d="M24.1828645,101.019965 C24.1828641,128.370479 38.7207298,153.643397 62.3201883,167.318654 C85.9196468,180.993911 114.995379,180.993911 138.594837,167.318654 C162.194296,153.643397 176.732161,128.370479 176.732161,101.019965 C176.732161,58.7397342 142.582838,24.4648348 100.457513,24.4648348 C58.3321877,24.4648348 24.1828645,58.7397342 24.1828645,101.019965 L24.1828645,101.019965 Z" id="Shape" fill="#FFFFFF"></path>
                <path d="M52.1853528,101.019965 C52.1853528,127.777979 73.7975349,149.469635 100.457513,149.469635 C127.117491,149.469635 148.729673,127.777979 148.729673,101.019965 C148.729673,74.2619516 127.117491,52.5702957 100.457513,52.5702957 C73.7975349,52.5702957 52.1853528,74.2619516 52.1853528,101.019965 L52.1853528,101.019965 Z" id="Shape" fill="#F9949E"></path>
                <path d="M79.4958466,101.019965 C79.4958466,112.639345 88.8807042,122.058713 100.457513,122.058713 C112.034321,122.058713 121.419179,112.639345 121.419179,101.019965 C121.419179,89.4005856 112.034321,79.9812174 100.457513,79.9812174 C88.8807042,79.9812174 79.4958466,89.4005856 79.4958466,101.019965 L79.4958466,101.019965 Z" id="Shape" fill="#FFFFFF"></path>
            </g>
        </g>
    </g>
</svg>