<?xml version="1.0" encoding="UTF-8"?>
<svg width="500px" height="578px" viewBox="0 0 500 578" version="1.1" xmlns="http://www.w3.org/2000/svg" xmlns:xlink="http://www.w3.org/1999/xlink">
    <!-- Generator: Sketch 43.1 (39012) - http://www.bohemiancoding.com/sketch -->
    <title>Group</title>
    <desc>Created with Sketch.</desc>
    <defs></defs>
    <g id="Page-1" stroke="none" stroke-width="1" fill="none" fill-rule="evenodd">
        <g id="Group">
            <polygon id="Polygon-2" fill-opacity="0.920827672" fill="#160425" points="250 0 500 144.337567 500 433.012702 250 577.350269 1.84741111e-13 433.012702 2.13162821e-14 144.337567"></polygon>
            <path d="M187.275895,445.998629 C165.317757,397.31726 177.009399,369.389794 193.834769,343.141232 C212.2278,314.451096 217.075218,285.913493 217.075218,285.913493 C217.075218,285.913493 231.475599,306.056917 225.773093,337.495411 C251.294737,306.973493 256.143756,258.597192 252.29362,239.978768 C310.182412,283.16685 334.848968,376.716233 301.484538,446 C478.716022,338.86959 345.543008,178.631577 322.443472,160.470755 C330.142464,178.631577 331.568891,209.152124 316.027112,223.955823 C289.651022,116.975205 224.347947,95 224.347947,95 C232.046938,150.243767 196.258478,210.524932 161.896445,255.696644 C160.612853,233.721438 159.330222,218.459794 148.493667,197.399794 C146.069958,237.383287 117.410431,270.041712 109.71176,310.023834 C99.3027493,364.352396 117.552946,404.031163 187.275895,445.998629 L187.275895,445.998629 Z" id="Shape" stroke="#979797" fill="#FFFFFF" fill-rule="nonzero"></path>
        </g>
    </g>
</svg>