<?xml version="1.0" encoding="UTF-8"?>
<svg width="47px" height="47px" viewBox="0 0 47 47" version="1.1" xmlns="http://www.w3.org/2000/svg" xmlns:xlink="http://www.w3.org/1999/xlink">
    <!-- Generator: Sketch 48.2 (47327) - http://www.bohemiancoding.com/sketch -->
    <title>icon-月子中心</title>
    <desc>Created with Sketch.</desc>
    <defs>
        <linearGradient x1="50%" y1="10.7727397%" x2="50%" y2="89.540818%" id="linearGradient-1">
            <stop stop-color="#FCD73E" offset="0%"></stop>
            <stop stop-color="#F6E046" offset="100%"></stop>
        </linearGradient>
        <circle id="path-2" cx="21.5" cy="21.5" r="21.5"></circle>
        <filter x="-7.0%" y="-7.0%" width="114.0%" height="114.0%" filterUnits="objectBoundingBox" id="filter-3">
            <feOffset dx="0" dy="0" in="SourceAlpha" result="shadowOffsetOuter1"></feOffset>
            <feGaussianBlur stdDeviation="1" in="shadowOffsetOuter1" result="shadowBlurOuter1"></feGaussianBlur>
            <feColorMatrix values="0 0 0 0 0.945843963   0 0 0 0 0.790787575   0 0 0 0 0  0 0 0 0.416355299 0" type="matrix" in="shadowBlurOuter1"></feColorMatrix>
        </filter>
    </defs>
    <g id="iPhone-8-Copy-4" stroke="none" stroke-width="1" fill="none" fill-rule="evenodd" transform="translate(-303.000000, -366.000000)">
        <g id="Group-8" transform="translate(26.000000, 275.000000)">
            <g id="icon-月子中心" transform="translate(279.000000, 93.000000)">
                <g id="Oval" fill-rule="nonzero">
                    <use fill="black" fill-opacity="1" filter="url(#filter-3)" xlink:href="#path-2"></use>
                    <use fill="url(#linearGradient-1)" fill-rule="evenodd" xlink:href="#path-2"></use>
                </g>
                <path d="M27.6354462,13.5183692 C27.6354462,13.5183692 26.5432615,10.0336308 22.6835385,10.0336308 C22.6835385,10.0336308 16.5852308,10.0336308 14.5218769,17.5074462 C14.5218769,17.5074462 13.1921846,22.6428923 13.6507077,25.7608 C14.1092615,28.8787077 12.4126154,29.1079077 12,29.4748615 C12,29.4748615 13.9717538,30.1626154 14.6135692,28.0534769 C14.6135692,28.0534769 17.3188615,33.8307692 21.2162154,33.2805231 C21.2162154,33.2805231 20.4367692,32.822 20.2991692,32.3634462 C20.2991692,32.3634462 23.0503692,33.0053846 22.9586462,30.5752308 C22.9586462,30.5752308 20.8495077,33.5097231 17.5022769,28.8328 C17.5022769,28.8328 14.2925538,23.2390462 18.5109231,18.6538462 C18.5109231,18.6538462 16.4477231,22.4596 17.1812615,24.8896615 C17.1812615,24.8896615 17.6854462,20.2586462 19.2904,19.0665846 C20.8953231,17.8742769 24.8842462,18.1952923 26.3973538,15.2148923 C26.3973538,15.2148923 26.8092615,20.2517846 23.6432615,22.3068308 C23.6432615,22.3068308 23.1156308,22.8344923 22.7545538,21.7792 C22.7545538,21.7792 21.6709231,19.9414462 20.644,21.5015385 C20.644,21.5015385 20.5706769,23.0479385 21.5325846,24.0563692 C21.5325846,24.0563692 22.6950769,25.6592308 23.4533538,25.8376 C24.2116615,26.0159692 24.3900308,27.3988 24.2116615,27.8447077 C24.2116615,27.8447077 25.0591385,28.2461538 25.1484308,26.9080308 C25.1484308,26.9080308 24.4346154,25.8376 24.1224615,25.7038462 C24.1224615,25.7038462 23.7656308,24.2318462 24.7914769,24.0533538 C24.7914769,24.0533538 24.3455385,21.2880923 26.3526462,20.3514462 C28.3597231,19.4147692 29.4748923,21.3325538 29.6978462,21.8677846 C29.9209231,22.4031077 30.7682769,24.4102154 27.9583077,25.6591385 C27.9583077,25.6591385 29.4272923,28.0304 27.4676615,30.1640615 C27.4676615,30.1640615 25.4610462,32.8150154 21.9368923,34 C21.9368923,34 29.6476,32.5632 31.7050462,24.8563692 C31.7050462,24.8563692 32.5750154,20.0352 28.3597231,18.6564923 C28.3598462,18.6564923 28.8290769,16.0966154 27.6354462,13.5183692 Z" id="月子中心" fill="#FFFFFF"></path>
            </g>
        </g>
    </g>
</svg>