<?xml version="1.0" encoding="UTF-8"?>
<svg width="48px" height="48px" viewBox="0 0 48 48" version="1.1" xmlns="http://www.w3.org/2000/svg" xmlns:xlink="http://www.w3.org/1999/xlink">
    <!-- Generator: Sketch 47.1 (45422) - http://www.bohemiancoding.com/sketch -->
    <title>icon-二手车2</title>
    <desc>Created with Sketch.</desc>
    <defs>
        <linearGradient x1="50%" y1="9.46246421%" x2="50%" y2="87.1502793%" id="linearGradient-1">
            <stop stop-color="#FF6A38" offset="0%"></stop>
            <stop stop-color="#FF8F62" offset="100%"></stop>
        </linearGradient>
        <ellipse id="path-2" cx="21.4537273" cy="21.3587849" rx="21.4537273" ry="21.3587849"></ellipse>
        <filter x="-7.0%" y="-7.0%" width="114.0%" height="114.0%" filterUnits="objectBoundingBox" id="filter-3">
            <feOffset dx="0" dy="0" in="SourceAlpha" result="shadowOffsetOuter1"></feOffset>
            <feGaussianBlur stdDeviation="1" in="shadowOffsetOuter1" result="shadowBlurOuter1"></feGaussianBlur>
            <feColorMatrix values="0 0 0 0 0.545758929   0 0 0 0 0   0 0 0 0 0  0 0 0 0.260331748 0" type="matrix" in="shadowBlurOuter1"></feColorMatrix>
        </filter>
    </defs>
    <g id="Page-2" stroke="none" stroke-width="1" fill="none" fill-rule="evenodd">
        <g id="iPhone-8-Copy-4" transform="translate(-209.000000, -273.000000)">
            <g id="Group-8" transform="translate(26.000000, 275.000000)">
                <g id="icon-二手车2" transform="translate(185.303072, 0.496716)">
                    <g id="Oval" fill-rule="nonzero">
                        <use fill="black" fill-opacity="1" filter="url(#filter-3)" xlink:href="#path-2"></use>
                        <use fill="url(#linearGradient-1)" fill-rule="evenodd" xlink:href="#path-2"></use>
                    </g>
                    <path d="M33.2830039,17.5923149 L30.9936939,17.5923149 C30.8847489,17.5923149 30.7846331,17.6246824 30.6948762,17.6728846 L29.6627041,14.5780769 C29.3324907,12.8172856 28.0879111,11.9683055 26.558347,11.9683055 L16.8630759,11.9683055 C15.107271,11.9683055 14.0416313,13.1086882 13.7587506,14.5763316 L12.7238374,17.6816746 C12.6297138,17.6274115 12.5228725,17.5923149 12.4068516,17.5923149 L10.1170316,17.5923149 C9.7651758,17.5923149 9.4795539,17.8761651 9.4795539,18.2274793 L9.4795539,18.7782025 C9.4795539,19.1283743 9.7651758,19.4127322 10.1170316,19.4127322 L10.983842,19.5602581 C10.7101728,20.0928937 10.553927,20.7022592 10.553927,21.4111706 L10.2330844,25.0642857 C10.2330844,25.1701464 10.2409254,25.2779746 10.2539937,25.3865643 C10.2419135,25.452759 10.2330844,25.5219366 10.2330844,25.5925739 L10.2330844,29.9873487 C10.2330844,30.6125806 10.7428116,31.1195443 11.3709503,31.1195443 L13.1074396,31.1195443 C13.7360883,31.1195443 14.2452098,30.6127075 14.2452098,29.9873487 L14.2452098,28.57473 L29.1755118,28.57473 L29.1755118,29.9873487 C29.1755118,30.6125806 29.684729,31.1194174 30.3133777,31.1194174 L32.0499945,31.1194174 C32.6780056,31.1194174 33.1877328,30.6125806 33.1877328,29.9873487 L33.1877328,25.5925739 C33.1877328,25.5218097 33.1790313,25.452759 33.1666961,25.3864374 C33.1794137,25.2779746 33.1877328,25.1701464 33.1877328,25.0642857 L32.8667628,21.4112975 C32.8667628,20.7005139 32.710007,20.0906724 32.4352223,19.5562915 L33.2830039,19.4127322 C33.6352422,19.4127322 33.9203541,19.1283743 33.9203541,18.7780756 L33.9203541,18.2274793 C33.9204816,17.8761651 33.6353378,17.5923149 33.2830039,17.5923149 Z M14.5242338,16.9419189 L15.2822267,14.9337067 L15.2926814,14.8865835 C15.3681269,14.4805302 15.5365803,14.4081159 15.785356,14.094532 L27.6504101,14.094532 C27.9012895,14.4168107 28.0577902,14.4986179 28.1270203,14.8822678 L28.8970934,16.9420458 L29.1788586,18.0610088 C29.1149833,18.8797158 28.1268928,19.5263992 27.3046422,19.5263992 L16.1166532,19.5263992 C15.293797,19.5263992 14.3057065,18.8797158 14.2419587,18.0610088 L14.5243295,16.9420458 L14.5242338,16.9419189 Z M15.0553803,26.49239 C14.103626,26.49239 13.3326924,25.7246142 13.3326924,24.7770719 C13.3326924,23.8296882 14.103626,23.0620076 15.0553803,23.0620076 C16.0071026,23.0620076 16.7782913,23.8296882 16.7782913,24.7770719 C16.7782913,25.7246142 16.0071026,26.49239 15.0553803,26.49239 Z M24.6776602,25.2270434 L24.6774053,25.2270434 C24.6774053,25.5092752 24.4479451,25.7372438 24.1649369,25.7372438 L19.3317083,25.7372438 C19.0489551,25.7372438 18.81924,25.5092752 18.81924,25.2270434 L18.81924,23.7934811 C18.81924,23.5118522 19.0487001,23.2838836 19.3317083,23.2838836 L24.1649369,23.2838836 C24.4479451,23.2838836 24.6776602,23.5118522 24.6776602,23.7934811 L24.6776602,25.2270434 Z M28.3654689,26.49239 C27.4137146,26.49239 26.642016,25.7246142 26.642016,24.7770719 C26.642016,23.8296882 27.4137146,23.0620076 28.3654689,23.0620076 C29.3170637,23.0620076 30.0881249,23.8296882 30.0881249,24.7770719 C30.0882524,25.7246142 29.3170637,26.49239 28.3654689,26.49239 Z" id="汽车" fill="#FFFFFF"></path>
                </g>
            </g>
        </g>
    </g>
</svg>