<?xml version="1.0" encoding="UTF-8"?>
<svg width="47px" height="47px" viewBox="0 0 47 47" version="1.1" xmlns="http://www.w3.org/2000/svg" xmlns:xlink="http://www.w3.org/1999/xlink">
    <!-- Generator: Sketch 47.1 (45422) - http://www.bohemiancoding.com/sketch -->
    <title>icon-顺风车2</title>
    <desc>Created with Sketch.</desc>
    <defs>
        <linearGradient x1="50%" y1="11.8983179%" x2="50%" y2="87.8427493%" id="linearGradient-1">
            <stop stop-color="#A5E814" offset="0%"></stop>
            <stop stop-color="#AEEC2C" offset="100%"></stop>
        </linearGradient>
        <ellipse id="path-2" cx="21.4537273" cy="21.3587849" rx="21.4537273" ry="21.3587849"></ellipse>
        <filter x="-7.0%" y="-7.0%" width="114.0%" height="114.0%" filterUnits="objectBoundingBox" id="filter-3">
            <feOffset dx="0" dy="0" in="SourceAlpha" result="shadowOffsetOuter1"></feOffset>
            <feGaussianBlur stdDeviation="1" in="shadowOffsetOuter1" result="shadowBlurOuter1"></feGaussianBlur>
            <feColorMatrix values="0 0 0 0 0.438195029   0 0 0 0 0.64019983   0 0 0 0 0  0 0 0 0.627094656 0" type="matrix" in="shadowBlurOuter1"></feColorMatrix>
        </filter>
    </defs>
    <g id="Page-2" stroke="none" stroke-width="1" fill="none" fill-rule="evenodd">
        <g id="iPhone-8-Copy-4" transform="translate(-118.000000, -365.000000)" fill-rule="nonzero">
            <g id="Group-8" transform="translate(26.000000, 275.000000)">
                <g id="icon-顺风车2" transform="translate(94.000000, 92.000000)">
                    <g id="Oval">
                        <use fill="black" fill-opacity="1" filter="url(#filter-3)" xlink:href="#path-2"></use>
                        <use fill="url(#linearGradient-1)" fill-rule="evenodd" xlink:href="#path-2"></use>
                    </g>
                    <path d="M33.4279006,20.1168005 C33.4279006,19.4313093 32.5343687,18.875192 31.4322286,18.875192 C31.0739514,18.875192 30.7386609,18.9345676 30.448287,19.0372317 L28.9374465,14.9014737 C28.5900543,14.3522027 28.5462901,13.7634809 27.995156,13.7634809 L25.6184123,13.7634809 L25.2790239,12.0922123 C25.1388312,11.6191105 24.4716436,11.4244663 23.9206376,11.4244663 L18.487893,11.4244663 C17.936887,11.4244663 17.2653134,11.6191105 17.1297629,12.0922123 L16.7902464,13.7634809 L14.4133746,13.7634809 C13.8622405,13.7634809 13.7098183,14.4203281 13.4708281,14.9014737 L11.9604998,19.0372317 C11.6698698,18.9344448 11.334099,18.875192 10.976174,18.875192 C9.87390583,18.875192 8.98063001,19.4313093 8.98063001,20.1168005 C8.98063001,20.8022917 9.87390583,21.3583783 10.976174,21.3583783 C10.9851701,21.3583783 10.9938141,21.3574266 11.0028103,21.3574266 C11.0080607,21.3881275 11.0100776,21.4167716 11.0178252,21.4483321 C10.9251425,23.0011257 11.8196989,28.0545356 11.9741381,28.8092574 C12.1749667,29.6577094 12.5041425,29.8029557 13.0551484,29.8029557 L15.0923116,29.8029557 C15.6433176,29.8029557 15.9658664,29.3574232 15.9658664,28.8092574 L15.9658664,27.7315921 C16.2250898,27.7572581 16.4954545,27.78099 16.7901183,27.7976606 C20.0048484,27.9834321 22.8616534,28.0060894 25.6183163,27.7976606 C25.9083059,27.775955 26.1799191,27.7493373 26.4427924,27.7206626 L26.4427924,28.8092574 C26.4427924,29.3574232 26.7649569,29.8029557 27.316091,29.8029557 L29.3535102,29.8029557 C29.9045163,29.8029557 30.2957046,29.386098 30.4342645,28.8092574 C30.7574215,27.9083682 32.064392,22.5972237 31.7241071,21.3436418 C32.6874313,21.2557143 33.4277726,20.7411353 33.4277726,20.1168005 L33.4279006,20.1168005 Z M14.4686046,25.3325123 C13.366307,25.3325123 12.4730972,24.4428233 12.4730972,23.3456334 C12.4730972,22.248474 13.366307,21.3587849 14.4686046,21.3587849 C15.5708081,21.3587849 16.4644884,22.248474 16.4644884,23.3456334 C16.4644884,24.4428233 15.5708081,25.3325123 14.4686046,25.3325123 Z M24.599581,19.7539205 C23.1849688,19.9392004 19.559711,19.8707709 18.4880031,19.7539205 C17.4160072,19.6381166 14.967688,19.3468832 14.967688,19.3468832 C14.4165633,19.3468832 13.9698689,18.9001673 13.9698689,18.3505453 L14.4692267,16.358824 C14.6766787,15.6586139 14.8811536,15.3981938 15.4322782,15.3981938 L26.9765085,15.3981938 C27.5277612,15.3981938 27.7317238,15.6586139 27.9398162,16.358824 L28.4386617,18.3505453 C28.4386617,18.9001673 27.9918393,19.3468832 27.4408426,19.3468832 C27.4407146,19.3468832 26.0147053,19.5677786 24.599581,19.7539205 Z M28.4387245,25.3325123 C27.3364268,25.3325123 26.4429662,24.4428233 26.4429662,23.3456334 C26.4429662,22.248474 27.3364268,21.3587849 28.4387245,21.3587849 C29.540677,21.3587849 30.4343573,22.248474 30.4343573,23.3456334 C30.4343573,24.4428233 29.540677,25.3325123 28.4387245,25.3325123 Z" id="Fill-1" fill="#FFFFFF"></path>
                </g>
            </g>
        </g>
    </g>
</svg>