<?xml version="1.0" encoding="UTF-8"?>
<svg width="47px" height="47px" viewBox="0 0 47 47" version="1.1" xmlns="http://www.w3.org/2000/svg" xmlns:xlink="http://www.w3.org/1999/xlink">
    <!-- Generator: Sketch 47.1 (45422) - http://www.bohemiancoding.com/sketch -->
    <title>icon-房屋2</title>
    <desc>Created with Sketch.</desc>
    <defs>
        <linearGradient x1="50%" y1="4.93842989%" x2="50%" y2="91.7150555%" id="linearGradient-1">
            <stop stop-color="#6C51F5" offset="0%"></stop>
            <stop stop-color="#8269FF" offset="100%"></stop>
        </linearGradient>
        <circle id="path-2" cx="21.5" cy="21.5" r="21.5"></circle>
        <filter x="-7.0%" y="-7.0%" width="114.0%" height="114.0%" filterUnits="objectBoundingBox" id="filter-3">
            <feOffset dx="0" dy="0" in="SourceAlpha" result="shadowOffsetOuter1"></feOffset>
            <feGaussianBlur stdDeviation="1" in="shadowOffsetOuter1" result="shadowBlurOuter1"></feGaussianBlur>
            <feColorMatrix values="0 0 0 0 0.151280994   0 0 0 0 0   0 0 0 0 0.913504464  0 0 0 0.375934103 0" type="matrix" in="shadowBlurOuter1"></feColorMatrix>
        </filter>
    </defs>
    <g id="Page-2" stroke="none" stroke-width="1" fill="none" fill-rule="evenodd">
        <g id="iPhone-8-Copy-4" transform="translate(-24.000000, -275.000000)">
            <g id="Group-8" transform="translate(26.000000, 275.000000)">
                <g id="icon-房屋2" transform="translate(0.000000, 2.000000)">
                    <g id="Oval" fill-rule="nonzero">
                        <use fill="black" fill-opacity="1" filter="url(#filter-3)" xlink:href="#path-2"></use>
                        <use fill="url(#linearGradient-1)" fill-rule="evenodd" xlink:href="#path-2"></use>
                    </g>
                    <path d="M25.8327004,24.4798651 L27.5824605,24.4798651 L27.5824605,21.5919322 L25.8327004,21.5919322 L25.8327004,24.4798651 Z M28.7491498,24.4798651 L30.4990559,24.4798651 L30.4990559,21.5919322 L28.7491498,21.5919322 L28.7491498,24.4798651 Z M25.8327004,28.5223651 L27.5824605,28.5223651 L27.5824605,25.6348703 L25.8327004,25.6348703 L25.8327004,28.5223651 Z M28.7491498,28.5223651 L30.4990559,28.5223651 L30.4990559,25.6348703 L28.7491498,25.6348703 L28.7491498,28.5223651 Z M12.9998122,25.0573495 L14.7498279,25.0573495 L14.7498279,22.1694165 L12.9998122,22.1694165 L12.9998122,25.0573495 Z M12.9998122,21.0144478 L14.7498279,21.0144478 L14.7498279,18.126807 L12.9998122,18.126807 L12.9998122,21.0144478 Z M12.9998122,16.9718018 L14.7498279,16.9718018 L14.7498279,14.084307 L12.9998122,14.084307 L12.9998122,16.9718018 Z M14.1665015,30.832339 L19.4161833,30.832339 L19.4161833,26.789839 L14.1665015,26.789839 L14.1665015,30.832339 Z M24.0826848,30.832339 L22.3327787,30.832339 L22.3327787,11.9475857 C22.3327787,10.8562221 21.6970931,10.041807 20.5126952,10.041807 L12.6908785,10.041807 C11.8332325,10.041807 11.2499061,10.8967146 11.2499061,11.9475857 L11.2499061,30.832339 L10.3750261,30.832339 C9.89094113,30.832339 9.5,31.2195924 9.5,31.6986751 C9.5,32.1777578 9.89094113,32.5648286 10.3750261,32.5648286 L33.1239881,32.5648286 C33.6084747,32.5648286 33.9988681,32.1777578 33.9988681,31.6986751 C33.9988681,31.2195924 33.6084747,30.832339 33.1239881,30.832339 L32.248962,30.832339 L32.248962,21.1303756 C32.248962,20.1080209 31.4150127,19.2818122 30.3823979,19.2818122 L25.8327004,19.2818122 C25.2028569,19.2818122 24.0712563,19.7785671 24.0712563,21.0144478 L24.0826848,30.832339 Z M18.8329665,25.0573495 L20.5828726,25.0573495 L20.5828726,22.1694165 L18.8329665,22.1694165 L18.8329665,25.0573495 Z M15.9163711,21.0144478 L17.6662772,21.0144478 L17.6662772,18.126807 L15.9163711,18.126807 L15.9163711,21.0144478 Z M18.8329665,21.0144478 L20.5828726,21.0144478 L20.5828726,18.126807 L18.8329665,18.126807 L18.8329665,21.0144478 Z M18.8329665,16.9718018 L20.5828726,16.9718018 L20.5828726,14.084307 L18.8329665,14.084307 L18.8329665,16.9718018 Z M15.9163711,16.9718018 L17.6662772,16.9718018 L17.6662772,14.084307 L15.9163711,14.084307 L15.9163711,16.9718018 Z M15.9163711,25.0573495 L17.6662772,25.0573495 L17.6662772,22.1694165 L15.9163711,22.1694165 L15.9163711,25.0573495 Z" id="房屋租售@2x" fill="#FFFFFF"></path>
                </g>
            </g>
        </g>
    </g>
</svg>