<?xml version="1.0" encoding="UTF-8"?>
<svg width="51px" height="51px" viewBox="0 0 51 51" version="1.1" xmlns="http://www.w3.org/2000/svg" xmlns:xlink="http://www.w3.org/1999/xlink">
    <!-- Generator: Sketch 47.1 (45422) - http://www.bohemiancoding.com/sketch -->
    <title>icon-商机2</title>
    <desc>Created with Sketch.</desc>
    <defs>
        <linearGradient x1="50%" y1="4.93842989%" x2="50%" y2="91.7150555%" id="linearGradient-1">
            <stop stop-color="#F15162" offset="0%"></stop>
            <stop stop-color="#FF6A78" offset="100%"></stop>
        </linearGradient>
        <circle id="path-2" cx="21.5" cy="21.5" r="21.5"></circle>
        <filter x="-14.0%" y="-14.0%" width="127.9%" height="127.9%" filterUnits="objectBoundingBox" id="filter-3">
            <feOffset dx="0" dy="0" in="SourceAlpha" result="shadowOffsetOuter1"></feOffset>
            <feGaussianBlur stdDeviation="2" in="shadowOffsetOuter1" result="shadowBlurOuter1"></feGaussianBlur>
            <feColorMatrix values="0 0 0 0 0.608338648   0 0 0 0 0   0 0 0 0 0.0592537644  0 0 0 0.426602129 0" type="matrix" in="shadowBlurOuter1"></feColorMatrix>
        </filter>
    </defs>
    <g id="Page-2" stroke="none" stroke-width="1" fill="none" fill-rule="evenodd">
        <g id="iPhone-8-Copy-4" transform="translate(-22.000000, -364.000000)" fill-rule="nonzero">
            <g id="Group-8" transform="translate(26.000000, 275.000000)">
                <g id="icon-商机2" transform="translate(0.000000, 93.000000)">
                    <g id="Oval">
                        <use fill="black" fill-opacity="1" filter="url(#filter-3)" xlink:href="#path-2"></use>
                        <use fill="url(#linearGradient-1)" fill-rule="evenodd" xlink:href="#path-2"></use>
                    </g>
                    <g id="商机管理-01" transform="translate(11.430380, 9.253165)" fill="#FFFFFF">
                        <path d="M3.32322618,6.10174357 C3.42245521,6.20119902 3.56009352,6.26261404 3.71226506,6.26261404 L3.71308942,6.26261404 C3.85417785,6.26261404 3.99526627,6.20912158 4.10286108,6.10174357 C4.31814228,5.88735041 4.31814228,5.53984599 4.10286108,5.32545282 L2.54346916,3.77265966 C2.3284322,3.55826649 1.97884069,3.55826649 1.76383426,3.77265966 C1.54855305,3.98705282 1.54855305,4.33455724 1.76383426,4.54895041 L3.32322618,6.10174357 Z M9.78731082,2.73970188 L9.78731082,2.74206051 C9.78731082,2.89219621 9.84895493,3.02802894 9.94855043,3.12618413 C10.0475352,3.22433931 10.1843186,3.28505884 10.335452,3.28505884 L10.3393906,3.28505884 C10.6444665,3.28387952 10.8922949,3.03782632 10.8927834,2.73543821 L10.8962335,0.545362115 C10.8969357,0.243094963 10.6494737,-0.00129510431 10.3443979,5.16455236e-06 C10.0390778,0.00118447816 9.79124944,0.24723768 9.79076093,0.549625786 L9.78731082,2.73970188 Z M3.30796018,11.8238639 C3.30796018,11.5207502 3.06107833,11.2748179 2.75670472,11.2748179 L0.551377582,11.2748179 C0.247003967,11.2748179 0,11.5207502 0,11.8238639 C0,12.1268266 0.247003967,12.3727588 0.551377582,12.3727588 L2.75670472,12.3727588 C3.06095621,12.3728798 3.30796018,12.1268266 3.30796018,11.8238639 Z M4.39041155,16.6944292 L2.83101963,18.2472223 C2.61573842,18.4616155 2.61573842,18.8091502 2.83101963,19.0235131 C2.93024866,19.1228778 3.06785645,19.1844138 3.22005852,19.1844138 L3.22076075,19.1844138 C3.36184918,19.1844138 3.50305972,19.1308911 3.6105324,19.0235131 L5.16992432,17.4707199 C5.38520552,17.2563268 5.38520552,16.9087014 5.16992432,16.6944292 C4.9550095,16.480036 4.6054485,16.480036 4.39041155,16.6944292 Z M15.9670509,16.6944292 C15.7516476,16.480036 15.4026972,16.480036 15.187416,16.6944292 C14.9721348,16.9088224 14.9721348,17.2563268 15.187416,17.4707199 L16.7468079,19.0235131 C16.846159,19.1228778 16.9839195,19.1844138 17.1362131,19.1844138 L17.1365795,19.1844138 C17.2777901,19.1844138 17.4186342,19.1308911 17.5264428,19.0235131 C17.741724,18.8091502 17.741724,18.4616155 17.5264428,18.2472223 L15.9670509,16.6944292 Z M20.1321667,11.2748179 L17.9268091,11.2748179 C17.6225881,11.2748179 17.3755842,11.5207502 17.3755842,11.823743 C17.3755842,12.1268266 17.622466,12.3727588 17.9268091,12.3727588 L20.1321667,12.3727588 C20.4365404,12.3727588 20.6835443,12.1268266 20.6835443,11.823743 C20.6835443,11.5207502 20.4365404,11.2748179 20.1321667,11.2748179 Z M16.3775538,5.79285412 C16.5186422,5.79285412 16.6595169,5.73936166 16.7673254,5.63198364 L18.3267173,4.07916025 C18.5419985,3.86479731 18.5419985,3.51726266 18.3267173,3.30289973 C18.1115583,3.08850657 17.7624858,3.08850657 17.5472046,3.30289973 L15.9878126,4.8556929 C15.7725314,5.07008607 15.7725314,5.41759048 15.9878126,5.63198364 C16.0870417,5.73131814 16.2246495,5.79285412 16.3768515,5.79285412 L16.3776759,5.79285412 L16.3775538,5.79285412 Z M13.6871646,20.0679313 C13.6871646,20.4307971 13.391401,20.7254138 13.0269099,20.7254138 L7.74548262,20.7254138 C7.3811136,20.7254138 7.08531948,20.4307971 7.08531948,20.0679313 C7.08531948,19.7178264 7.36084034,19.4340956 7.70753133,19.4143799 C7.29653993,15.7152058 3.45430011,14.8911982 3.45430011,10.5355092 C3.45430011,6.72318136 6.55781793,3.6326842 10.3861352,3.6326842 C14.2146662,3.6326842 17.3180924,6.72318136 17.3180924,10.5355092 C17.3180924,14.8910772 13.4758219,15.7152058 13.0648306,19.4145009 C13.4114299,19.4340956 13.6871646,19.7178264 13.6871646,20.0679313 Z M8.96746529,7.87367739 C8.88170087,7.66318503 8.64116968,7.56182454 8.42885008,7.64676536 C7.01998098,8.21516428 5.95184911,9.43037135 5.57160345,10.8973165 C5.51460019,11.1177272 5.64771976,11.3420388 5.86883257,11.3988575 C5.90318109,11.4079593 5.93798758,11.4119811 5.97212237,11.4119811 C6.15626093,11.4119811 6.32418699,11.288758 6.3723665,11.1032126 C6.68721259,9.88773337 7.5720608,8.8808717 8.73917744,8.41005342 C8.9508864,8.32465902 9.05286332,8.08474429 8.96746529,7.87367739 Z" id="灯泡"></path>
                        <path d="M12.5981917,22.6095424 L8.08537535,22.6095424 C7.71427705,22.6095424 7.42677663,22.9088142 7.55039276,23.2341345 C7.62483734,23.4302504 7.86266639,23.5515677 8.10905517,23.5515677 L8.11758364,23.5515677 C8.44341538,23.5515677 8.74116248,23.7054196 8.88699015,23.9487288 L8.89295695,23.9585619 C9.08954939,24.2865286 9.49091911,24.4936709 9.93012026,24.4936709 L10.7536967,24.4936709 C11.1928666,24.4936709 11.5942363,24.2864248 11.7905788,23.9585619 L11.7964519,23.9487288 C11.9422797,23.7054196 12.2401517,23.5515677 12.5658584,23.5515677 L12.574262,23.5515677 C12.8207757,23.5515677 13.0586048,23.4303542 13.1330494,23.2341345 C13.2569154,22.908918 12.969415,22.6095424 12.5983167,22.6095424 L12.5981917,22.6095424 Z" id="Path"></path>
                        <path d="M13.1622555,21.196433 C13.1622555,21.4564845 12.9096818,21.6674781 12.5981276,21.6674781 L8.08532302,21.6674781 C7.77401864,21.6674781 7.52128884,21.4564845 7.52128884,21.196433 C7.52128884,20.9364074 7.77389368,20.7254138 8.08532302,20.7254138 L12.5981276,20.7254138 C12.9095569,20.7254138 13.1622555,20.9365111 13.1622555,21.196433 Z" id="Path"></path>
                    </g>
                </g>
            </g>
        </g>
    </g>
</svg>