<?xml version="1.0" encoding="UTF-8"?>
<svg width="47px" height="47px" viewBox="0 0 47 47" version="1.1" xmlns="http://www.w3.org/2000/svg" xmlns:xlink="http://www.w3.org/1999/xlink">
    <!-- Generator: Sketch 47.1 (45422) - http://www.bohemiancoding.com/sketch -->
    <title>icon-招聘2</title>
    <desc>Created with Sketch.</desc>
    <defs>
        <linearGradient x1="50%" y1="10.7727397%" x2="50%" y2="89.540818%" id="linearGradient-1">
            <stop stop-color="#60B6F2" offset="0%"></stop>
            <stop stop-color="#5ACCFA" offset="100%"></stop>
        </linearGradient>
        <circle id="path-2" cx="21.5" cy="21.5" r="21.5"></circle>
        <filter x="-7.0%" y="-7.0%" width="114.0%" height="114.0%" filterUnits="objectBoundingBox" id="filter-3">
            <feOffset dx="0" dy="0" in="SourceAlpha" result="shadowOffsetOuter1"></feOffset>
            <feGaussianBlur stdDeviation="1" in="shadowOffsetOuter1" result="shadowBlurOuter1"></feGaussianBlur>
            <feColorMatrix values="0 0 0 0 0   0 0 0 0 0.21025311   0 0 0 0 0.327301233  0 0 0 0.288043478 0" type="matrix" in="shadowBlurOuter1"></feColorMatrix>
        </filter>
    </defs>
    <g id="Page-2" stroke="none" stroke-width="1" fill="none" fill-rule="evenodd">
        <g id="iPhone-8-Copy-4" transform="translate(-303.000000, -275.000000)">
            <g id="Group-8" transform="translate(26.000000, 275.000000)">
                <g id="icon-招聘2" transform="translate(279.000000, 2.000000)">
                    <g id="Oval" fill-rule="nonzero">
                        <use fill="black" fill-opacity="1" filter="url(#filter-3)" xlink:href="#path-2"></use>
                        <use fill="url(#linearGradient-1)" fill-rule="evenodd" xlink:href="#path-2"></use>
                    </g>
                    <g id="猫眼new" transform="translate(9.500000, 9.500000)" fill="#FFFFFF">
                        <path d="M23.6904423,22.6374991 C23.8690264,22.9326981 23.8265301,23.3110589 23.5870866,23.5594344 C23.546754,23.5929987 23.5032037,23.6224575 23.4566021,23.6469789 C23.4457838,23.6588512 23.4425106,23.6747179 23.4305828,23.68598 C23.0065081,24.1046733 22.3247375,24.1046733 21.9006073,23.68598 L18.8057606,20.6203702 C14.928173,23.9122197 9.30885004,24.1453943 5.17156946,21.1864134 C0.562336539,18.1310116 -1.23570924,12.2381815 0.882445274,7.13008934 C3.00059978,2.02177527 8.4408949,-0.869411318 13.8597755,0.233216259 C19.278656,1.33584384 23.1564655,6.1234389 23.1098638,11.6530538 C23.1079221,14.3812457 22.1262368,17.0177322 20.3435585,19.0827942 L20.3288013,19.0994931 L23.4290849,22.17115 C23.5554086,22.3011907 23.6453941,22.4617444 23.6904423,22.6374991 Z M18.0547301,17.207545 C18.0407905,17.037937 18.0068959,16.8740553 17.9553792,16.7181555 C17.3880398,14.4016774 15.5334576,12.5895694 13.1923393,12.083464 C13.1726928,12.0909833 13.1528728,12.0982134 13.133072,12.1054434 C13.1528728,12.0982134 13.1726928,12.0909833 13.1923393,12.083464 C14.6598329,11.5201157 15.7024679,10.0972943 15.7024679,8.43173522 C15.7024679,6.27439589 13.951054,4.52298201 11.7929434,4.52298201 C9.6341581,4.52298201 7.88124036,6.27439589 7.88124036,8.43173522 C7.88124036,10.1158997 8.94820694,11.5521208 10.4423458,12.1022044 C10.4685668,12.1118445 10.4948458,12.1211954 10.521356,12.1302956 C10.4949229,12.1211954 10.4685668,12.1118445 10.4423458,12.1022044 C10.4379113,12.1032648 10.4333997,12.104383 10.428946,12.1054434 C10.4091452,12.0982134 10.3893252,12.0909833 10.3696015,12.083464 C8.02848329,12.5895694 6.17390103,14.4016774 5.6065617,16.7181555 C5.55504499,16.8740553 5.52115039,17.0380141 5.5073072,17.207545 C5.50254499,17.2653856 5.5,17.3238239 5.5,17.3828792 C5.5,18.552108 6.44789203,19.5 7.61712082,19.5 L15.9448201,19.5 C17.1140488,19.5 18.0619602,18.552108 18.0619602,17.3828792 C18.0619602,17.3238239 18.059473,17.2653856 18.0547301,17.207545 Z" id="Combined-Shape"></path>
                        <path d="M11.7913625,19.1659126 L11.7913625,19.1452057 L11.7809704,19.1555977 L11.7705784,19.1659126 L9.94001928,17.4822108 L11.3134254,14.2521015 C10.8797751,13.8023329 10.5901864,13.0257069 10.5901864,13.0257069 L10.5865039,12.9781812 C11.0187275,12.6212661 11.4247494,12.5137982 11.7705784,12.5250964 L11.7705784,12.5258483 C11.7740488,12.5256941 11.7775,12.525617 11.7809704,12.5254627 C11.7844409,12.525617 11.7879692,12.5256941 11.7913625,12.5258483 L11.7913625,12.5250964 C12.1372879,12.5137982 12.5432905,12.6212661 12.9755141,12.9781812 L12.9718316,13.0257069 C12.9718316,13.0257069 12.6822429,13.80241 12.2485925,14.2521015 L13.6219216,17.4822108 L11.7913625,19.1659126 Z" id="Path"></path>
                    </g>
                </g>
            </g>
        </g>
    </g>
</svg>