<?xml version="1.0" encoding="UTF-8"?>
<svg width="47px" height="47px" viewBox="0 0 47 47" version="1.1" xmlns="http://www.w3.org/2000/svg" xmlns:xlink="http://www.w3.org/1999/xlink">
    <!-- Generator: Sketch 47.1 (45422) - http://www.bohemiancoding.com/sketch -->
    <title>icon-闲置2</title>
    <desc>Created with Sketch.</desc>
    <defs>
        <linearGradient x1="50%" y1="9.48235139%" x2="50%" y2="87.8427493%" id="linearGradient-1">
            <stop stop-color="#45DFAE" offset="0%"></stop>
            <stop stop-color="#65E5C0" offset="100%"></stop>
        </linearGradient>
        <ellipse id="path-2" cx="21.4537273" cy="21.3587849" rx="21.4537273" ry="21.3587849"></ellipse>
        <filter x="-7.0%" y="-7.0%" width="114.0%" height="114.0%" filterUnits="objectBoundingBox" id="filter-3">
            <feOffset dx="0" dy="0" in="SourceAlpha" result="shadowOffsetOuter1"></feOffset>
            <feGaussianBlur stdDeviation="1" in="shadowOffsetOuter1" result="shadowBlurOuter1"></feGaussianBlur>
            <feColorMatrix values="0 0 0 0 0.00112383293   0 0 0 0 0.387515944   0 0 0 0 0.266446416  0 0 0 0.324728261 0" type="matrix" in="shadowBlurOuter1"></feColorMatrix>
        </filter>
        <polygon id="path-4" points="0.00193514015 0.0114470741 0.00193514015 22.5088651 24.4190001 22.5088651 24.4190001 0.0114470741 0.00193514015 0.0114470741"></polygon>
    </defs>
    <g id="Page-2" stroke="none" stroke-width="1" fill="none" fill-rule="evenodd">
        <g id="iPhone-8-Copy-4" transform="translate(-118.000000, -273.000000)">
            <g id="Group-8" transform="translate(26.000000, 275.000000)">
                <g id="icon-闲置2" transform="translate(94.000000, 0.000000)">
                    <g id="Oval" fill-rule="nonzero">
                        <use fill="black" fill-opacity="1" filter="url(#filter-3)" xlink:href="#path-2"></use>
                        <use fill="url(#linearGradient-1)" fill-rule="evenodd" xlink:href="#path-2"></use>
                    </g>
                    <g id="闲置" transform="translate(9.479554, 10.431034)">
                        <mask id="mask-5" fill="white">
                            <use xlink:href="#path-4"></use>
                        </mask>
                        <g id="Clip-2"></g>
                        <path d="M22.9047059,10.6725905 L1.51434393,10.6725905 C0.896905208,10.6725905 0.50797429,11.1621335 0.649820063,11.7603033 L2.94025195,21.4210238 C3.08200096,22.0194505 3.70321321,22.5088651 4.32081318,22.5088651 L20.0983656,22.5088651 C20.7157076,22.5088651 21.3370488,22.0194505 21.4787979,21.4210238 L23.7693265,11.7603033 C23.9110755,11.1621335 23.5221446,10.6725905 22.9047059,10.6725905 Z M7.64506144,20.4874691 L7.05090891,20.4828454 C6.85791093,20.4814646 6.66426791,20.3270496 6.62030798,20.1401717 L4.94973373,13.0310088 C4.90574155,12.8437456 5.02759087,12.6927341 5.22045984,12.694757 L5.81599922,12.7014037 C6.00877144,12.7037798 6.20289824,12.8585481 6.24676142,13.0455545 L7.91617458,20.1504467 C7.96016676,20.3374531 7.83818843,20.4889783 7.64506144,20.4874691 Z M12.8408482,20.10103 C12.8408482,20.2934308 12.6831021,20.4507358 12.4903621,20.4507358 L11.9288167,20.4507358 C11.7360767,20.4507358 11.5779435,20.2934308 11.5779435,20.10103 L11.5779435,13.0401922 C11.5779435,12.8477593 11.7359477,12.6907433 11.9288167,12.6907433 L12.4903621,12.6907433 C12.6831021,12.6907433 12.8408482,12.8477593 12.8408482,13.0401922 L12.8408482,20.10103 Z M19.4693161,13.0310088 L17.7989998,20.1401717 C17.7550399,20.327178 17.5612679,20.4815931 17.3681409,20.4828454 L16.7738593,20.4875976 C16.5808614,20.4891067 16.458754,20.3373246 16.5028752,20.1505752 L18.1725464,13.0455545 C18.2164096,12.8585481 18.4101494,12.7036514 18.6029216,12.7014037 L19.1984609,12.694757 C19.3912009,12.6927341 19.513405,12.8437456 19.4693161,13.0310088 Z" id="Fill-1" fill="#FFFFFF" mask="url(#mask-5)"></path>
                        <path d="M23.9570673,6.72474665 L21.328631,6.72474665 C21.1533718,6.72474665 21.0595175,6.64296349 21.0241044,6.6075787 L14.542159,0.154061884 C14.3512896,-0.0360911958 14.038571,-0.0360911958 13.8474759,0.154061884 L13.3512092,0.648003935 C13.1604689,0.838028576 13.1604689,1.1493312 13.3512092,1.33935584 L18.5835057,6.54852914 C18.5835057,6.54852914 18.7765359,6.72461821 18.4872647,6.72461821 L5.81448336,6.72461821 C5.66254261,6.72461821 5.7721683,6.61136763 5.7721683,6.61136763 L11.0675826,1.3392274 C11.2587099,1.14920276 11.2587099,0.837900138 11.0675826,0.647875497 L10.5714449,0.154061884 C10.3804788,-0.0360911958 10.0680182,-0.0360911958 9.87714885,0.154061884 L3.39481637,6.6075787 C3.3594033,6.64309192 3.27122542,6.72487509 3.12218737,6.72487509 L0.461982459,6.72487509 C0.153198595,6.72487509 -0.0498943636,6.97147685 0.0107077755,7.2728576 L0.281691902,8.62171788 C0.342294041,8.9230023 0.644304914,9.16960407 0.952959768,9.16960407 L23.465961,9.16960407 C23.7743901,9.16960407 24.0766267,8.9230023 24.1373579,8.62171788 L24.408342,7.27272916 C24.4688152,6.97134841 24.2657222,6.72474665 23.9570673,6.72474665 Z" id="Fill-3" fill="#FFFFFF" mask="url(#mask-5)"></path>
                    </g>
                </g>
            </g>
        </g>
    </g>
</svg>