<?xml version="1.0" encoding="UTF-8"?>
<svg width="47px" height="47px" viewBox="0 0 47 47" version="1.1" xmlns="http://www.w3.org/2000/svg" xmlns:xlink="http://www.w3.org/1999/xlink">
    <!-- Generator: Sketch 47.1 (45422) - http://www.bohemiancoding.com/sketch -->
    <title>icon-宠物2</title>
    <desc>Created with Sketch.</desc>
    <defs>
        <linearGradient x1="50%" y1="10.7727397%" x2="50%" y2="89.540818%" id="linearGradient-1">
            <stop stop-color="#FCD73E" offset="0%"></stop>
            <stop stop-color="#F6E046" offset="100%"></stop>
        </linearGradient>
        <circle id="path-2" cx="21.5" cy="21.5" r="21.5"></circle>
        <filter x="-7.0%" y="-7.0%" width="114.0%" height="114.0%" filterUnits="objectBoundingBox" id="filter-3">
            <feOffset dx="0" dy="0" in="SourceAlpha" result="shadowOffsetOuter1"></feOffset>
            <feGaussianBlur stdDeviation="1" in="shadowOffsetOuter1" result="shadowBlurOuter1"></feGaussianBlur>
            <feColorMatrix values="0 0 0 0 0.945843963   0 0 0 0 0.790787575   0 0 0 0 0  0 0 0 0.416355299 0" type="matrix" in="shadowBlurOuter1"></feColorMatrix>
        </filter>
    </defs>
    <g id="Page-2" stroke="none" stroke-width="1" fill="none" fill-rule="evenodd">
        <g id="iPhone-8-Copy-4" transform="translate(-303.000000, -366.000000)">
            <g id="Group-8" transform="translate(26.000000, 275.000000)">
                <g id="icon-宠物2" transform="translate(279.000000, 93.000000)">
                    <g id="Oval" fill-rule="nonzero">
                        <use fill="black" fill-opacity="1" filter="url(#filter-3)" xlink:href="#path-2"></use>
                        <use fill="url(#linearGradient-1)" fill-rule="evenodd" xlink:href="#path-2"></use>
                    </g>
                    <g id="Group-3" transform="translate(9.500000, 10.000000)" fill="#FFFFFF">
                        <path d="M11.8787879,22.8850098 C9.17771218,22.6816406 7.59426048,21.3172673 7.59426048,19.6064527 C7.59426048,17.8956381 9.27221562,17.2613636 11.6931818,17.2613636 C14.114148,17.2613636 16.1477273,18.520246 16.1477273,20.2310606 C16.1477273,21.9418752 14.5798636,23.0883789 11.8787879,22.8850098 Z M8.80757489,19.1650384 C8.74169212,19.2928205 8.70789684,19.4392411 8.70789684,19.6064527 C8.70789684,20.5608305 9.99444342,21.7713734 11.8787879,21.7713734 C13.7631323,21.7713734 15.0340909,21.1854383 15.0340909,20.2310606 C15.0340909,19.9027681 14.8617409,19.5807107 14.5589152,19.2994446 C13.7922718,19.5361862 12.8704617,19.6742424 11.8787879,19.6742424 C10.7120285,19.6742424 9.64198017,19.4831336 8.80757489,19.1650384 Z" id="Combined-Shape" fill-rule="nonzero"></path>
                        <path d="M8.90909091,22.3803933 C5.01380983,22.3803933 3.77925155,17.9433018 4.9661153,12.4925738 C6.15297906,7.04184582 6.3548325,2.72070472 12.0725833,2.24291412 C17.7903341,1.76512352 20.4340672,12.5307118 19.5118371,19.246841 C19.1102059,22.171715 16.355084,22.8719593 14.4772727,21.9504542 C13.6584843,21.5486473 13.2126069,21.1696038 12.1125319,18.6900228 C12.1125319,21.1928045 10.0117375,22.3803933 8.90909091,22.3803933 Z M12.0495966,17.490162 C13.3336135,17.5844151 15.9473239,16.3044719 15.9473239,15.0743831 C15.9473239,13.8442943 15.9473239,11.8951543 12.0495966,11.9067547 C8.15186933,11.9183551 8.15186933,13.8442943 8.15186933,15.0743831 C8.15186933,16.3044719 10.7655797,17.3959089 12.0495966,17.490162 Z M10.0227273,10.7651515 C10.6377717,10.7651515 11.1363636,10.2665595 11.1363636,9.65151515 C11.1363636,9.03647077 10.6377717,8.53787879 10.0227273,8.53787879 C9.40768289,8.53787879 8.90909091,9.03647077 8.90909091,9.65151515 C8.90909091,10.2665595 9.40768289,10.7651515 10.0227273,10.7651515 Z M14.4772727,10.7651515 C15.0923171,10.7651515 15.5909091,10.2665595 15.5909091,9.65151515 C15.5909091,9.03647077 15.0923171,8.53787879 14.4772727,8.53787879 C13.8622283,8.53787879 13.3636364,9.03647077 13.3636364,9.65151515 C13.3636364,10.2665595 13.8622283,10.7651515 14.4772727,10.7651515 Z" id="Combined-Shape"></path>
                        <path d="M1.85030338,11.0346095 C3.28540694,11.0346095 4.34719917,8.98502762 4.34719917,6.83237228 C4.34719917,5.86648299 4.85466999,3.16882766 5.99091359,3.16882766 C7.20822833,3.16882766 7.79869812,4.96757426 8.57852308,5.3969174 C9.25537161,5.76956548 9.65663328,4.47510175 9.65663328,4.0736572 C9.65663328,1.25984032 6.82301299,-0.565398931 4.34719917,0.159254387 C1.85030338,0.890078251 0.651839248,1.95368798 0.0986461849,5.3969174 C-0.270655958,7.69555794 0.415199827,11.0346095 1.85030338,11.0346095 Z" id="Oval-4"></path>
                        <path d="M16.3275761,11.0346095 C17.7626797,11.0346095 18.8244719,8.98502762 18.8244719,6.83237228 C18.8244719,5.86648299 19.3319427,3.16882766 20.4681863,3.16882766 C21.6855011,3.16882766 22.2759709,4.96757426 23.0557958,5.3969174 C23.7326443,5.76956548 24.133906,4.47510175 24.133906,4.0736572 C24.133906,1.25984032 21.3002857,-0.565398931 18.8244719,0.159254387 C16.3275761,0.890078251 15.129112,1.95368798 14.5759189,5.3969174 C14.2066168,7.69555794 14.8924726,11.0346095 16.3275761,11.0346095 Z" id="Oval-4-Copy" transform="translate(19.305589, 5.517305) scale(-1, 1) translate(-19.305589, -5.517305) "></path>
                    </g>
                </g>
            </g>
        </g>
    </g>
</svg>